Genre: Comedy | Drama
Language:English  http://www.imdb.com/title/tt1183911/
Source:BluRay x264-AVCHD


Format : MPEG-4
Format profile : Base Media
Codec ID : isom
File size : 2.26 GiB
Duration : 2h 0mn
Overall bit rate : 2 673 Kbps
Movie name : Mr.Nice.2010.LiMiTED.720p.BRRip.x264.Feel-Free


Video
Format settings, CABAC : Yes
Format settings, ReFrames : 4 frames
Format settings, GOP : M=1, N=16
Codec ID : avc1
Codec ID/Info : Advanced Video Coding
Duration : 2h 0mn
Bit rate mode : Variable
Bit rate : 2 300 Kbps
Width : 1 280 pixels
Height : 688 pixels
Display aspect ratio : 1.860
Frame rate mode : Constant
Frame rate : 23.976 fps
Color space : YUV
Chroma subsampling : 4:2:0
Bit depth : 8 bits
Scan type : Progressive
Bits/(Pixel*Frame) : 0.109
Stream size : 1.93 GiB (85%)
Writing library : x264

Audio
ID : 2
Format : AAC
Format/Info : Advanced Audio Codec
Format version : Version 4
Format profile : LC
Codec ID : 40
Duration : 2h 0mn
Bit rate mode : Variable
Bit rate : 384 Kbps
Channel(s) : 6 channels
Channel positions : Front: L C R, Side: L R, LFE
Sampling rate : 48.0 KHz
Stream size : 332 MiB (14%)



Plot:
The life story of Howard Marks, an elite British drug smuggler.
 
http://rapidhdd.com/images/563848vlcsnap-00001.png 
http://www.rapidhdd.com/images/567023vlcsnap-00004.png 
http://www.rapidhdd.com/images/947791vlcsnap-00003.png 
http://www.rapidhdd.com/images/889883vlcsnap-00002.png